<svg xmlns="http://www.w3.org/2000/svg" width="65" height="32" viewBox="0 0 81.865 40"><path d="M14.227 16.598c-3.518 0-6.033 3.345-6.129 7.242a9.438 9.438 0 0 1-2.072 1.434c-.314.156-.779.332-1.061.39a3.18 3.18 0 0 1-.625.066c-1.059 0-1.598-.539-1.598-1.728 0-2.762 1.166-5.244 3.107-5.244 1.361 0 1.705.538 1.9.538.066 0 .131-.021.195-.129l.82-1.34c.045-.064.131-.191.131-.26 0-.213-1.209-.971-2.895-.971-3.279.002-6 2.744-6 7.195C0 26.596 1.641 28 4.014 28c1.064 0 3.014-.438 4.445-1.863C9.016 27.424 10.178 28 11.764 28c3.498 0 6.002-3.476 6.002-7.473 0-2.763-1.362-3.929-3.539-3.929m-2.075 9.242c-.928 0-1.316-.561-1.316-1.576 0-2.094.861-5.505 2.873-5.505.926 0 1.314.562 1.314 1.575 0 2.095-.865 5.506-2.871 5.506zm12.885-6.61l.906-2.18c.018-.062.043-.109.043-.174 0-.191-.41-.279-.736-.279-1.66 0-2.764 1.535-3.348 2.181 0-1.21-.191-2.181-.43-2.181-.109 0-.152.044-.219.064l-1.725.67c-.109.045-.26.086-.26.236 0 .392.193.693.193 1.341 0 .689-.15 1.229-.256 1.769l-1.471 6.501a.499.499 0 0 0-.023.239c0 .172.109.211.283.211h2.008c.217 0 .236-.02.303-.256l.93-4.275c.301-1.445 1.271-3.907 2.934-3.907.348 0 .584.149.732.149.046.001.113-.064.136-.109zm8.022 5.377l2.547-11.96c.025-.13.066-.304.066-.411 0-.172-.023-.236-.109-.236-.061 0-.215.043-.303.064l-1.896.387c-.324.066-.348.151-.387.368l-.934 4.317c-.346-.195-.818-.539-1.877-.539-3.736 0-5.486 4.707-5.486 8.164 0 2.16.824 3.238 2.354 3.238 1.924 0 2.916-1.319 3.457-1.945 0 1.08.174 1.945.408 1.945.111 0 .193-.045.26-.064l1.727-.672c.107-.041.262-.085.262-.236 0-.258-.154-.777-.17-1.297-.001-.259-.027-.646.081-1.123zm-2.161-2.005c-.324 1.555-1.273 3.238-2.588 3.238-.672 0-1.037-.561-1.037-1.492 0-2.242.797-5.701 2.998-5.701.738 0 1.209.303 1.383.391l-.756 3.564zm9.684-6.004c-3.586 0-6.133 3.477-6.133 7.472 0 2.763 1.404 3.931 3.672 3.931 3.498 0 6.004-3.476 6.004-7.473 0-2.764-1.361-3.93-3.543-3.93zM38.51 25.84c-.932 0-1.314-.561-1.314-1.576 0-2.094.859-5.505 2.871-5.505.928 0 1.316.562 1.316 1.575 0 2.095-.863 5.506-2.873 5.506zm13.092-9.242c-1.707 0-2.766 1.144-3.047 1.602l-.043-.047 1.207-5.505c.023-.13.066-.283.066-.433 0-.15 0-.215-.107-.215-.064 0-.217.043-.303.064l-1.9.387c-.326.066-.344.151-.387.368l-2.83 13.192c-.021.088-.043.172-.043.326 0 .452 2.439 1.662 4.275 1.662 3.844 0 5.703-4.426 5.703-8.054 0-1.793-.672-3.347-2.591-3.347zm-2.829 9.457c-.867 0-1.535-.432-1.771-.584l.773-3.713c.283-1.38.975-2.999 2.656-2.999.822 0 1.17.517 1.17 1.444.001 2.009-.906 5.852-2.828 5.852zm32.852-9.09H79.92c-.152 0-.236.045-.303.217l-.234.582c-.346-.369-.998-1.166-2.4-1.166-2.74 0-5.117 3.562-5.117 7.838 0 2.27.822 3.564 2.396 3.564 1.881 0 3.004-1.404 3.479-1.945 0 1.08.174 1.945.408 1.945.109 0 .193-.045.262-.064l1.725-.672c.109-.041.262-.085.262-.236 0-.258-.152-.777-.172-1.297 0-.322.062-1.057.172-1.531l1.426-6.759c.018-.085.043-.173.043-.259-.002-.108-.068-.217-.242-.217zm-3.539 5.874c-.307 1.36-1.125 3.001-2.721 3.001-.586 0-.908-.453-.908-1.297 0-2.244.951-6.002 2.785-6.002.779 0 1.275.52 1.6.779l-.756 3.519zm-9.361-6.241c-2.465 0-4.125 1.535-4.125 3.821 0 1.491.711 1.899 1.857 2.53 1.123.625 2.096.71 2.096 1.658 0 .928-.65 1.447-1.924 1.447-.877 0-1.605-.297-2.107-.514-.654-.297-1.51-.771-1.51-.771a.978.978 0 0 0-.127-.052.142.142 0 0 0-.078-.02c-.324 0-1.705 1.033-3.566 1.031-2.029-.004-1.936-1.555-1.936-2.201 1.229 0 6.717 0 6.717-4.08 0-1.729-1.168-2.852-3.199-2.852-3.324 0-6.111 3.07-6.111 7.385 0 2.396 1.246 3.995 3.842 3.992 1.984-.002 3.492-.541 4.32-1.002.467.23 1.062.506 1.48.626.677.22 1.572.404 2.404.404 2.742 0 4.273-1.557 4.273-3.824 0-1.404-.518-1.877-1.572-2.482-.949-.539-2.377-.732-2.377-1.814 0-.732.52-1.338 1.684-1.338.994 0 1.707.627 2.119.627.041 0 .107-.021.17-.15l.453-1.254a.425.425 0 0 0 .043-.173c0-.563-1.703-.994-2.826-.994zm-8.287 1.943c.645 0 .99.496.99 1.058 0 1.986-2.895 1.986-3.824 1.986.197-.797.804-3.044 2.834-3.044z" fill="#007852"/></svg>