<svg id="Layer_1" xmlns="http://www.w3.org/2000/svg" viewBox="0 0 617.9 260.6" width="72" height="32"><style>.st1{fill:#fff}</style><path d="M594 192.1c0 20.3-16.6 36.9-36.9 36.9H62.9C42.6 229 26 212.4 26 192.1V61.5c0-20.3 16.6-36.9 36.9-36.9h494.3c20.3 0 36.9 16.6 36.9 36.9v130.6z" fill="#003057"/><path class="st1" d="M159.3 110c-27.8 0-50.8 21.5-52.3 48.9 0 .7.2 1.3.7 1.8.5.5 1.2.8 1.9.8h18.5c1.3 0 2.4-1 2.5-2.3 1.4-14.8 13.8-25.9 28.8-25.9s27.4 11.2 28.8 25.9c.1 1.3 1.2 2.3 2.5 2.3h18.5c.7 0 1.4-.3 1.9-.8s.7-1.2.7-1.8C210 131.5 187 110 159.3 110"/><path class="st1" d="M159.3 138.4c-13.1 0-23.8 10.6-23.8 23.6 0 13 10.7 23.6 23.8 23.6 13.1 0 23.8-10.6 23.8-23.6-.1-13.1-10.7-23.6-23.8-23.6"/><path class="st1" d="M159.3 81.7c-21.1 0-41.1 8-56.3 22.5-15.1 14.5-23.9 33.9-24.7 54.7 0 .7.2 1.4.7 1.9.5.5 1.1.8 1.8.8h18.4c1.4 0 2.5-1 2.5-2.4 1.5-30.4 26.7-54.3 57.5-54.3s56 23.8 57.5 54.3c.1 1.3 1.2 2.4 2.5 2.4h18.4c.7 0 1.3-.3 1.8-.8s.7-1.2.7-1.9c-.8-20.8-9.5-40.2-24.7-54.7-15.1-14.5-35-22.5-56.1-22.5m176.3 10.1h-21.1c-.3 0-.6.2-.7.5l-13.2 51.3h-.2l-12.7-51.3c-.1-.3-.3-.5-.7-.5h-22c-.4 0-.6.3-.7.6l-4.5 67.7c0 .2.1.4.2.5.1.1.3.2.5.2h11.4c.4 0 .7-.3.7-.6l3.3-56.4h.1l15 56.5c.1.3.3.5.6.5h15.7c.3 0 .6-.2.6-.5l15.5-56.5h.1l2.4 56.4c0 .4.3.6.7.6h13.3c.2 0 .4-.1.5-.2.1-.1.2-.3.2-.5l-4.5-67.7c.2-.3-.1-.6-.5-.6m34 15.9c-5.4 0-13.8.9-18.2 1.9-.3.1-.5.3-.5.6v9.6c0 .2.1.4.3.5.2.1.4.2.6.1 3-.7 10.1-1.8 17.1-1.8 11.7 0 12 2.8 12 10.2h-1c-10.6 0-22.5 0-28.6 6-2.5 2.5-3.8 5.9-3.8 10.1 0 14.7 11.7 16.9 24.3 17.1h3.5c5.9 0 12-.4 20.3-1.3.3 0 .6-.3.6-.7v-34.7c0-5.1-1.5-9.2-4.3-12-5.3-5.1-13.9-5.7-22.3-5.6m11.2 31.2v12.4c-2.6.3-4.8.5-7.3.5-5.9 0-10.2-.5-10.2-6.5s4.2-6.5 10.2-6.5c3.5 0 6 0 7.3.1m66.4 10.9l-.9.1c-2.5.3-4.8.6-8.9.6-13.3 0-18.8-4.6-18.8-16 0-11.3 5.3-15.7 18.8-15.7 3 0 5.7.2 9.4.7.2 0 .4 0 .5-.2.1-.1.2-.3.2-.5v-9.1c0-.3-.2-.6-.5-.7-4.4-1-9.4-1.5-15-1.5-20.2 0-29.3 13.2-29.3 26.2 0 17.6 11.2 28 29.9 28 5.6 0 10.3-.5 14.8-1.7.3-.1.5-.3.5-.6v-9.2c0-.2-.1-.4-.2-.5-.1.1-.3 0-.5.1m42-40.8c0-.4-.3-.7-.7-.7h-.9c-4.6 0-10.2-.1-18.4 4.5v-3.5c0-.4-.3-.7-.7-.7h-12.3c-.4 0-.7.3-.7.7v50.8c0 .4.3.7.7.7h13.9c.4 0 .7-.3.7-.7v-36.3c4.6-3 12-3 17-3h.8c.4 0 .7-.3.7-.7V109zm28-1.4c-17.3 0-28 10.4-28 27.2 0 16.8 10.7 27.2 28 27.2 16.4 0 27.8-11.2 27.8-27.2 0-16.8-10.7-27.2-27.8-27.2m12 27.3c0 11.6-3.5 16.4-12.1 16.4-8.7 0-12.2-4.7-12.2-16.4s3.5-16.5 12.2-16.5c8.6.1 12.1 4.9 12.1 16.5"/></svg>