<svg xmlns="http://www.w3.org/2000/svg" width="73" height="32" viewBox="0 0 91.951 40"><path fill="#2A3375" d="M33.673 19.042c0-6.085-7.536-11.03-16.837-11.03-9.299 0-16.834 4.945-16.834 11.03L0 19.685c0 6.435 6.587 11.648 16.836 11.648 10.308 0 16.837-5.212 16.837-11.648v-.643z"/><path fill="#1A97D5" d="M33.023 19.035c0 5.709-7.238 10.348-16.184 10.348-8.941 0-16.188-4.639-16.188-10.348 0-5.727 7.246-10.367 16.188-10.367 8.946-.001 16.184 4.64 16.184 10.367z"/><g fill="#FFF"><path d="M11.468 15.755c-.013.022-.174.186-.07.336.255.313 1.048.506 1.847.323.466-.111 1.081-.589 1.677-1.05.64-.529 1.266-1.026 1.906-1.24.672-.193 1.104-.102 1.392-.016.313.097.684.279 1.271.727 1.106.833 5.562 4.728 6.33 5.389.621-.271 3.38-1.447 7.114-2.278-.313-2.005-1.534-3.829-3.366-5.323-2.576 1.078-5.711 1.648-8.779.148-.013 0-1.676-.809-3.306-.751-2.438.041-3.497 1.108-4.605 2.217l-1.411 1.518z"/><path d="M25.641 20.666c-.053-.062-5.233-4.584-6.404-5.473-.686-.52-1.063-.63-1.461-.701a2.11 2.11 0 0 0-.689.075c-.546.152-1.255.626-1.895 1.13-.663.52-1.281 1.023-1.855 1.135-.736.16-1.631-.02-2.042-.29a1.043 1.043 0 0 1-.333-.368c-.154-.348.126-.634.168-.696l1.433-1.54c.16-.179.337-.34.507-.496-.465.049-.887.175-1.305.301-.515.135-1.015.287-1.52.287-.215 0-1.333-.183-1.562-.26-1.29-.357-2.423-.694-4.124-1.48-2.024 1.506-3.392 3.4-3.781 5.496.285.074.764.198.952.26 4.607 1.012 6.042 2.079 6.303 2.283a1.59 1.59 0 0 1 1.146-.502c.5.004.961.252 1.244.664.26-.221.624-.398 1.098-.398.213 0 .438.043.656.127.518.174.784.517.925.815.171-.078.394-.122.645-.12.241 0 .504.042.76.162.852.367.985 1.207.909 1.838.056-.008.117-.012.184-.012a1.823 1.823 0 0 1 1.601 2.685c.277.141.974.486 1.592.412.488-.051.667-.215.736-.309.046-.08.095-.158.052-.201l-1.305-1.445s-.205-.21-.144-.283c.07-.078.212.048.305.12.659.558 1.468 1.37 1.468 1.37.011.008.066.12.361.181.257.044.718.007 1.033-.247.074-.059.15-.135.225-.219-.008.006-.015.014-.017.016.336-.447-.036-.873-.036-.873l-1.515-1.7s-.229-.21-.146-.285c.061-.061.201.048.296.126.485.4 1.154 1.082 1.817 1.723.121.095.688.445 1.452-.066.455-.281.547-.657.537-.943-.036-.371-.323-.633-.323-.633l-2.065-2.088s-.215-.189-.142-.288c.053-.075.2.052.295.124.656.561 2.448 2.203 2.448 2.203.021.009.638.455 1.403-.039.269-.172.449-.432.461-.75a1.05 1.05 0 0 0-.348-.828z"/><path d="M15.598 23.289c-.322-.014-.665.188-.72.168-.028-.009.017-.154.055-.219.024-.071.447-1.35-.587-1.788-.784-.331-1.265.031-1.438.21-.041.045-.057.043-.063-.004-.02-.246-.122-.864-.796-1.073-.979-.285-1.606.382-1.762.629-.079-.541-.54-.987-1.108-.987-.622 0-1.137.516-1.137 1.139 0 .619.515 1.115 1.135 1.115.297 0 .573-.1.772-.299.008.008.01.02.006.02-.046.283-.13 1.309.937 1.707.42.178.785.059 1.082-.163.089-.054.105-.02.093.065-.036.259.013.815.801 1.125.585.234.94-.007 1.175-.219.102-.091.127-.084.13.074.042.73.664 1.357 1.423 1.357.782 0 1.423-.633 1.423-1.432a1.431 1.431 0 0 0-1.421-1.425z"/></g><path fill="#2A3375" d="M25.842 20.123c-1.597-1.416-5.292-4.613-6.295-5.375-.563-.422-.952-.633-1.294-.738a1.7 1.7 0 0 0-.638-.105c-.258 0-.529.033-.816.125-.65.21-1.293.719-1.921 1.223l-.025.033c-.577.447-1.178.924-1.626 1.027a2.607 2.607 0 0 1-.609.061c-.513 0-.973-.137-1.14-.371-.023-.014-.01-.088.061-.176h.008l1.41-1.527c1.097-1.08 2.139-2.133 4.527-2.173l.12-.002c1.488.002 2.986.647 3.146.736 1.396.687 2.839 1.024 4.283 1.026 1.514 0 3.071-.377 4.715-1.115a4.41 4.41 0 0 0-.58-.451c-1.438.626-2.805.923-4.133.923a8.994 8.994 0 0 1-3.999-.954c-.075-.048-1.721-.811-3.432-.811-.047 0-.089 0-.136.002-2.005.033-3.142.751-3.901 1.38-.744.013-1.383.192-1.947.358-.513.143-.951.271-1.37.271-.176 0-.495-.018-.525-.018-.497-.019-2.963-.619-4.937-1.377-.194.136-.393.297-.585.438 2.058.858 4.564 1.496 5.353 1.554.219.019.456.03.692.03.517 0 1.04-.143 1.543-.271.306-.088.628-.178.987-.268-.099.09-.19.18-.285.28l-1.423 1.551c-.123.121-.358.416-.202.784.06.167.198.304.382.437.331.212.935.361 1.511.361.213 0 .412 0 .598-.056.605-.124 1.232-.635 1.891-1.16.528-.411 1.291-.945 1.862-1.121.16-.028.362-.067.515-.067.047 0 .094 0 .133.01.388.058.759.176 1.413.686 1.168.874 6.356 5.395 6.4 5.457.007.004.339.294.315.741a.81.81 0 0 1-.413.673c-.216.136-.449.225-.677.225-.346 0-.588-.18-.604-.18-.012-.01-1.796-1.643-2.442-2.193-.111-.084-.216-.159-.316-.159-.049 0-.101.018-.126.054-.108.142 0 .316.133.414l2.083 2.09c.002.001.253.246.295.566.004.34-.158.641-.5.846-.247.179-.484.268-.734.268-.324 0-.544-.164-.598-.18l-.295-.299c-.543-.535-1.102-1.096-1.516-1.434-.1-.08-.209-.15-.307-.15-.053 0-.094 0-.143.042-.036.048-.074.136.053.311.037.056.098.095.098.095l1.519 1.707c.004.014.308.369.029.718l-.053.089c-.048.041-.095.092-.142.129-.258.223-.604.231-.732.231l-.215-.001a.713.713 0 0 1-.295-.14l-.019-.028A23.566 23.566 0 0 0 18.49 23.8c-.08-.072-.189-.16-.287-.16-.054 0-.105.007-.136.059-.135.125.05.34.136.41l1.297 1.412a.204.204 0 0 1-.055.092c-.045.087-.201.237-.665.281a.99.99 0 0 1-.169.014c-.494 0-1.002-.221-1.268-.379.119-.251.186-.535.186-.812 0-1.068-.87-1.92-1.93-1.923-.026 0-.043.003-.074.003.037-.495-.031-1.403-.972-1.814a1.85 1.85 0 0 0-.806-.176c-.215 0-.406.045-.591.115a1.551 1.551 0 0 0-.948-.798 2.15 2.15 0 0 0-.688-.136c-.396 0-.76.125-1.078.342a1.656 1.656 0 0 0-1.262-.605c-.436 0-.851.168-1.159.484-.404-.322-1.989-1.33-6.261-2.311-.207-.029-.679-.187-.979-.266-.04.253-.086.472-.107.709 0 0 .789.178.949.225 4.358.961 5.8 1.979 6.041 2.171a1.647 1.647 0 0 0-.129.628c0 .902.739 1.641 1.643 1.641.096 0 .194-.01.295-.037.136.672.562 1.163 1.238 1.418.185.072.381.123.576.123.128 0 .251-.02.367-.062.135.324.403.719 1.022.965.209.086.425.109.64.109.178 0 .339-.002.49-.087.308.72 1.002 1.21 1.791 1.21.516 0 1.014-.223 1.378-.583.312.18.963.481 1.638.483.085 0 .159-.008.241-.021.657-.085.962-.334 1.106-.542.022-.018.043-.064.066-.1.148.041.328.09.519.09.36 0 .707-.133 1.06-.383.341-.245.588-.605.62-.91l.002-.014c.112.029.24.048.354.048.37 0 .736-.126 1.08-.356.674-.449.789-1.006.789-1.393.106.037.222.044.352.044.344 0 .679-.099 1.01-.318.42-.267.662-.667.703-1.139a1.529 1.529 0 0 0-.229-.939c1.13-.476 3.703-1.417 6.73-2.093a6.273 6.273 0 0 0-.086-.721c-3.672.815-6.406 2.006-7.088 2.325zm-10.244 5.921a1.31 1.31 0 0 1-1.317-1.261c-.005-.069-.015-.235-.147-.235-.062 0-.1.043-.156.082-.16.167-.355.299-.648.299-.136 0-.279-.036-.426-.091-.756-.304-.756-.826-.735-1.022.012-.062.015-.112-.021-.171l-.051-.022h-.038a.338.338 0 0 0-.143.039c-.217.154-.423.242-.633.242a.813.813 0 0 1-.355-.088c-.989-.368-.914-1.314-.862-1.6.009-.045-.012-.105-.045-.115l-.073-.075-.063.085a1.024 1.024 0 0 1-.705.268 1.017 1.017 0 0 1-1.033-1.016c0-.576.459-1.041 1.035-1.041.504 0 .939.396 1.01.895l.027.279.154-.223c.018-.035.435-.661 1.193-.661.152 0 .307.034.447.062.612.189.71.744.729.986.016.123.112.135.125.135.052 0 .09-.045.122-.054a1 1 0 0 1 .757-.337c.18 0 .374.059.563.144.973.401.533 1.64.533 1.64-.09.207-.09.295-.014.357h.058c.046 0 .1 0 .191-.029.13-.059.332-.124.52-.123a1.335 1.335 0 0 1 1.316 1.322c-.001.717-.599 1.329-1.315 1.329zm75.435-14.022c-.598-.779-1.527-1.136-2.759-1.136-1.237 0-2.161.356-2.765 1.136-.611.749-.915 1.646-.915 2.701 0 1.049.304 1.953.915 2.716.604.727 1.527 1.109 2.765 1.109 1.231 0 2.161-.383 2.759-1.109.617-.763.918-1.667.918-2.716 0-1.055-.301-1.952-.918-2.701zm-1.495 4.353c-.302.404-.716.608-1.271.608-.554 0-.972-.204-1.274-.608-.293-.374-.448-.929-.448-1.652s.155-1.286.448-1.683c.303-.367.721-.569 1.274-.569.556 0 .97.202 1.271.569.288.396.44.959.44 1.683s-.152 1.278-.44 1.652zm-14.03-4.992c-.612-.319-1.312-.479-2.115-.479-1.217 0-2.073.336-2.58.968-.312.398-.489.912-.531 1.541h1.817c.047-.285.138-.484.269-.643.191-.234.512-.354.965-.354.404 0 .705.076.912.173.216.114.31.329.31.628 0 .238-.134.416-.403.54-.145.06-.404.101-.752.163l-.641.074c-.739.094-1.302.243-1.674.471-.693.379-1.034 1.026-1.034 1.909 0 .706.215 1.231.644 1.604.427.36.973.531 1.629.538 4.118.188 4.073-2.156 4.118-2.647v-2.718c-.002-.859-.317-1.457-.934-1.768zm-.954 4.11c-.01.634-.192 1.063-.538 1.319-.355.23-.729.358-1.146.358-.259 0-.474-.089-.657-.226-.184-.133-.272-.381-.272-.692 0-.36.146-.632.441-.798.177-.108.465-.193.872-.262l.426-.086c.213-.038.381-.09.514-.127a5.19 5.19 0 0 0 .36-.186v.7zm-8.442-2.971c.47 0 .81.159 1.033.429.157.232.255.461.291.73h2.037c-.115-1.006-.474-1.721-1.075-2.145-.613-.385-1.387-.602-2.343-.602-1.117 0-2.006.339-2.635 1.027-.633.699-.952 1.646-.952 2.873 0 1.1.281 1.988.862 2.696.576.679 1.478 1.017 2.692 1.017 1.224 0 2.154-.398 2.775-1.225.388-.512.602-1.051.649-1.635h-2.03c-.039.389-.15.68-.354.939-.188.225-.522.355-.993.355-.652 0-1.098-.31-1.338-.9-.126-.34-.189-.754-.189-1.277 0-.557.063-.997.189-1.326.254-.625.708-.956 1.381-.956zm-4.194-1.587c-4.174 0-3.938 3.705-3.938 3.705v3.752h1.903V14.86c0-.562.079-1.013.217-1.281.268-.487.771-.726 1.526-.726.061 0 .132.005.225.007.09 0 .204 0 .321.009v-1.912c-.081-.01-.143-.012-.164-.016a.545.545 0 0 0-.09-.006zm-6.961 5.5a1.706 1.706 0 0 1-.254.285c-.268.207-.634.271-1.068.271-.408 0-.721-.056-1.002-.238-.481-.303-.748-.772-.771-1.494h5.245a10.225 10.225 0 0 0-.062-1.426 3.6 3.6 0 0 0-.578-1.514 3.215 3.215 0 0 0-1.239-1.059 4.43 4.43 0 0 0-1.687-.326c-1.063 0-1.925.325-2.582 1.002-.655.653-.995 1.628-.995 2.867 0 1.328.367 2.277 1.103 2.885a3.97 3.97 0 0 0 2.533.885c1.157 0 2.062-.347 2.716-1.042.343-.372.561-.737.651-1.097h-2.01zm-2.546-3.541c.269-.275.631-.395 1.13-.395.442 0 .81.108 1.111.36.298.269.463.646.509 1.163H51.91c.061-.476.234-.85.501-1.128zm-3.206 5.498h-1.73v-4.363c0-.395-.126-1.348-1.273-1.348-.763 0-1.317.537-1.317 1.348v4.363h-1.729v-4.363c0-.395-.116-1.348-1.26-1.348-.775 0-1.315.537-1.315 1.348v4.363h-1.73V14.07c0-1.799 1.194-3.165 3.046-3.165.911 0 1.668.394 2.151 1.009a2.785 2.785 0 0 1 2.154-1.009c1.889 0 3.004 1.32 3.004 3.165v4.322zM84.03 8.65s-1.911-.189-1.911 1.337v2.035a2.299 2.299 0 0 0-1.992-1.087c-.946 0-1.698.352-2.265 1.05-.569.696-.841 1.728-.841 2.946 0 1.07.274 1.959.855 2.625.579.693 1.707.975 2.697.975 3.498 0 3.456-2.977 3.456-2.977V8.65zm-2.271 7.748c-.28.409-.691.594-1.221.594-.53 0-.929-.185-1.183-.598-.264-.393-.4-.978-.4-1.646 0-.619.137-1.129.389-1.532.256-.433.657-.625 1.212-.625.363 0 .678.091.954.341.443.377.666 1.051.666 1.922 0 .634-.143 1.147-.417 1.544z"/><path d="M40.677 30.42a.929.929 0 0 1-.937.94h-.95v-6.59c0-1.291.431-2.089 1.138-2.633.473-.355 1.169-.693 2.483-.693.879 0 1.919.338 2.479 1.023.629.77.889 1.615.889 2.738 0 1.156-.276 2.1-.829 2.816-.562.689-1.275 1.029-2.152 1.029-.455 0-.868-.08-1.225-.238-.372-.183-.667-.475-.896-.867v2.475zm3.185-5.131c0-.713-.142-1.264-.422-1.65-.278-.373-.679-.568-1.195-.568-.504 0-.888.195-1.171.568-.256.356-.397.896-.397 1.65 0 .691.142 1.221.426 1.579.274.36.675.562 1.189.562.493 0 .87-.201 1.148-.562.281-.394.422-.906.422-1.579m14.479 3.163v-.47c-.331.502-.778.84-1.326.953a2.63 2.63 0 0 1-1.653-.126c-.548-.235-1.025-.624-1.416-1.223-.388-.603-.588-1.376-.588-2.342 0-1.154.256-2.058.781-2.776.521-.706 1.357-1.012 2.503-1.057 1.14-.021 1.793.242 2.439.712.702.533 1.124 1.358 1.124 2.651v3.879c.004 1.226-.86 3.514-3.563 3.322-1.673-.135-2.6-.805-3.121-2.369h2.002c.145.252.373.452.669.582.294.146.607.181.902.107.296-.051.572-.234.828-.531.24-.292.381-.739.419-1.312m-3.116-3.161c0 1.264.36 1.959 1.087 2.115.731.119 1.271-.047 1.612-.538.174-.18.286-.503.355-.925.078-.426.09-.869.018-1.286a2.462 2.462 0 0 0-.451-1.112c-.239-.348-.585-.51-1.047-.51-.609 0-1.034.24-1.257.691-.219.449-.317.988-.317 1.565m-3.491-3.362c-.615-.295-1.312-.448-2.116-.448-1.212 0-2.07.306-2.578.946-.313.399-.489.933-.532 1.565h1.823c.047-.281.134-.519.263-.674.193-.221.514-.321.965-.321.407 0 .706.042.912.168.216.109.313.298.313.604 0 .234-.135.413-.406.536a2.601 2.601 0 0 1-.753.16l-.635.069c-.743.104-1.305.27-1.68.479-.69.411-1.033 1.046-1.033 1.941 0 .672.21 1.198.647 1.574.424.382.966.527 1.624.57 4.121.186 4.076-2.18 4.119-2.68v-2.693c.001-.888-.311-1.464-.933-1.796m-.95 4.13c-.014.629-.193 1.075-.538 1.302a2.098 2.098 0 0 1-1.147.355c-.259 0-.475-.062-.657-.219-.182-.139-.271-.359-.271-.701 0-.364.143-.629.443-.799.174-.105.466-.191.869-.25l.424-.082c.214-.055.383-.078.514-.146a.99.99 0 0 0 .364-.177v.717zm16.585-3.512c-.603-.78-1.534-1.156-2.765-1.156-1.243 0-2.157.376-2.777 1.156-.599.743-.899 1.642-.899 2.697 0 1.052.301 1.956.899 2.702.62.743 1.534 1.124 2.777 1.124 1.23 0 2.162-.381 2.765-1.124.61-.746.914-1.65.914-2.702 0-1.055-.304-1.953-.914-2.697m-1.5 4.353c-.303.406-.719.598-1.27.598-.558 0-.977-.191-1.278-.598-.29-.391-.443-.932-.443-1.655 0-.721.153-1.28.443-1.681.302-.377.721-.566 1.278-.566.551 0 .967.189 1.27.566.291.4.443.96.443 1.681 0 .723-.152 1.264-.443 1.655" fill="#1A97D5"/></svg>